<?xml version="1.0" standalone="no"?>
<!DOCTYPE svg PUBLIC "-//W3C//DTD SVG 20010904//EN"
 "http://www.w3.org/TR/2001/REC-SVG-20010904/DTD/svg10.dtd">
<svg version="1.0" xmlns="http://www.w3.org/2000/svg"
 width="2000.000000pt" height="252.000000pt" viewBox="0 0 2000.000000 252.000000"
 preserveAspectRatio="xMidYMid meet">
<g transform="translate(0.000000,252.000000) scale(0.100000,-0.100000)"
fill="#000000" stroke="none">
<path d="M3860 2484 c-14 -2 -59 -9 -100 -15 -187 -28 -428 -127 -575 -236
-192 -142 -319 -337 -381 -583 -16 -64 -19 -113 -19 -330 0 -225 3 -268 23
-368 106 -529 400 -830 896 -919 126 -23 391 -22 511 1 301 58 526 186 677
386 114 150 201 387 202 550 1 76 -2 90 -27 132 -18 31 -44 57 -75 75 l-47 28
-428 3 c-339 2 -432 0 -445 -10 -8 -7 -33 -35 -54 -61 l-38 -49 1 139 c0 76 4
161 7 188 l7 50 14 -33 c19 -45 92 -107 144 -121 69 -20 706 -10 770 11 118
40 157 101 157 253 0 184 -53 364 -151 510 -57 85 -183 207 -261 253 -119 70
-280 121 -448 142 -79 9 -304 12 -360 4z m326 -175 c278 -31 478 -137 599
-318 78 -118 125 -277 125 -421 0 -67 0 -68 -32 -81 -35 -13 -627 -27 -674
-15 -30 8 -49 44 -64 126 -24 122 -56 155 -144 148 -69 -6 -105 -32 -139 -102
-34 -70 -46 -179 -49 -456 -2 -177 0 -214 16 -269 34 -113 118 -173 197 -141
36 15 71 72 94 155 9 33 23 70 31 83 l14 22 365 0 c356 0 365 0 386 -21 18
-18 20 -28 14 -72 -29 -212 -144 -430 -289 -548 -82 -67 -238 -143 -361 -176
-94 -25 -113 -27 -320 -27 -208 0 -225 1 -318 27 -179 50 -295 115 -403 228
-137 145 -211 302 -261 554 -13 70 -17 141 -17 325 -1 229 0 237 27 325 48
155 144 310 244 392 252 208 597 303 959 262z"/>
<path d="M6777 2483 c-2 -5 -19 -86 -38 -180 -18 -95 -36 -169 -40 -165 -3 4
-16 66 -28 137 -12 72 -25 137 -27 146 -4 14 -40 17 -267 25 -413 14 -954 12
-1000 -5 -52 -18 -106 -67 -128 -116 -18 -38 -19 -95 -19 -1071 l0 -1031 23
-44 c16 -29 40 -54 72 -74 l48 -30 348 -3 c232 -2 362 1 389 8 23 6 58 27 79
45 l38 35 19 -21 c10 -12 42 -33 69 -48 l50 -26 335 0 c370 0 390 3 455 66
l31 29 54 -50 53 -51 366 3 c353 3 367 4 406 25 114 61 158 173 159 408 2 241
-35 1699 -44 1765 -11 79 -47 135 -110 170 l-45 25 -535 -4 c-517 -3 -538 -2
-617 18 -92 24 -90 24 -96 14z m-617 -204 c179 -6 328 -14 332 -18 3 -3 20
-80 37 -171 110 -585 169 -872 174 -855 3 11 47 227 97 480 49 253 95 484 101
513 l10 52 544 0 c508 0 543 -1 550 -17 4 -10 17 -434 28 -943 21 -979 21
-1008 -23 -1062 -18 -23 -19 -23 -339 -26 l-320 -3 -15 30 c-35 67 -39 116
-45 571 l-6 455 -43 -175 c-23 -96 -75 -325 -115 -508 -41 -183 -79 -338 -85
-344 -21 -21 -100 -27 -347 -28 -234 0 -316 7 -330 30 -3 4 -41 167 -85 362
-44 194 -102 445 -128 558 l-47 205 -6 -120 c-4 -66 -7 -319 -8 -562 -1 -426
-2 -443 -20 -453 -30 -16 -632 -14 -654 3 -16 11 -17 81 -15 1012 l3 1000 35
12 c46 16 305 16 720 2z"/>
<path d="M1272 2453 l-312 -3 -38 -41 c-20 -23 -45 -53 -54 -68 -17 -27 -302
-869 -454 -1341 -47 -146 -117 -377 -155 -513 l-71 -248 29 -42 c15 -22 51
-65 78 -95 l51 -55 414 10 c400 9 417 10 468 33 87 38 109 72 152 238 l11 43
132 -3 132 -3 5 -70 c10 -131 75 -198 220 -225 80 -15 765 -5 822 12 82 24
147 109 148 193 0 25 -116 409 -317 1050 l-318 1010 -45 45 c-25 25 -63 52
-85 59 -45 15 -292 20 -813 14z m770 -185 c20 -16 641 -1980 632 -2002 -3 -8
-13 -17 -22 -20 -10 -3 -183 -6 -387 -8 -450 -3 -430 -8 -437 104 -4 52 -12
88 -32 125 -42 85 -39 84 -306 81 l-234 -3 -36 -143 c-27 -109 -40 -146 -55
-155 -13 -7 -144 -13 -385 -18 -365 -7 -365 -7 -382 15 -10 11 -18 26 -18 32
0 21 140 491 223 749 114 352 404 1210 417 1235 10 20 21 20 508 20 383 0 502
-3 514 -12z"/>
<path d="M1512 1818 c-43 -55 -79 -167 -151 -480 -59 -252 -60 -258 -43 -288
l17 -30 114 0 c126 0 234 15 251 35 7 9 -12 111 -69 366 -95 424 -91 409 -101
409 -4 0 -12 -6 -18 -12z"/>
<path d="M8388 1368 c-4 -590 -3 -1096 1 -1124 6 -44 16 -61 67 -119 l61 -68
169 2 c93 1 367 6 609 11 242 6 532 9 645 8 199 -3 207 -2 253 21 28 13 61 41
77 63 48 66 53 111 45 406 -7 295 -14 329 -76 373 -21 15 -28 26 -24 38 4 9 6
130 5 269 0 186 -4 264 -14 293 -13 38 -13 41 11 67 14 15 35 45 47 67 20 38
21 54 24 403 l3 362 -949 0 -949 0 -5 -1072z m1722 637 l0 -265 -25 -16 c-23
-15 -61 -16 -370 -12 -397 6 -349 21 -361 -119 l-7 -83 336 0 c283 0 338 -2
350 -15 13 -12 15 -56 16 -243 l2 -229 -138 -6 c-76 -4 -231 -10 -345 -14
l-208 -6 0 -95 0 -94 243 8 c371 14 503 12 521 -6 21 -22 28 -519 7 -543 -12
-15 -45 -17 -285 -17 -149 0 -491 -5 -759 -12 l-488 -11 -22 22 -22 22 4 992
c2 546 5 995 8 1000 2 4 350 7 774 7 l769 0 0 -265z"/>
<path d="M13666 2314 c-316 -57 -584 -230 -717 -462 -91 -158 -129 -318 -129
-536 0 -381 91 -653 282 -845 185 -185 423 -271 752 -271 239 0 422 40 595
130 101 53 168 113 247 223 164 229 223 450 211 795 -4 134 -10 187 -31 267
-32 126 -105 274 -191 387 -129 171 -283 258 -547 309 -120 23 -353 25 -472 3z
m299 -533 c53 -24 88 -64 119 -131 36 -79 47 -168 46 -379 0 -250 -19 -359
-78 -452 -69 -108 -219 -138 -317 -63 -98 74 -140 294 -116 599 17 217 60 342
136 400 61 48 142 57 210 26z"/>
<path d="M11400 2309 c-234 -27 -479 -131 -633 -269 -101 -91 -195 -244 -238
-392 -18 -60 -23 -107 -26 -267 -6 -215 5 -329 44 -485 91 -362 300 -582 639
-673 92 -25 113 -27 314 -27 191 -1 225 2 303 22 338 85 562 296 641 604 37
145 40 174 16 198 -19 19 -33 20 -388 20 -423 0 -374 14 -415 -121 -38 -122
-91 -166 -171 -139 -48 16 -92 69 -113 138 -15 49 -18 90 -16 287 4 283 14
372 50 444 37 72 68 94 142 99 56 4 62 2 90 -25 20 -21 32 -46 41 -89 22 -110
31 -134 55 -150 21 -14 65 -15 342 -12 381 4 376 2 381 91 10 196 -98 441
-251 568 -176 147 -485 215 -807 178z"/>
<path d="M15398 2259 c-17 -9 -18 -68 -18 -1009 0 -978 0 -1000 19 -1010 26
-13 660 -13 732 0 30 6 60 18 67 27 9 13 12 97 12 341 l0 324 68 -7 c83 -9
120 -27 137 -69 7 -17 21 -90 30 -161 38 -301 61 -409 92 -437 16 -14 66 -17
368 -20 436 -4 452 0 400 102 -16 32 -25 66 -25 97 0 63 -28 353 -40 425 -28
152 -76 254 -154 325 -31 28 -76 59 -101 69 l-46 17 63 35 c120 68 211 182
244 307 8 28 14 88 14 135 0 283 -165 462 -468 509 -94 15 -1370 15 -1394 0z
m1064 -462 c70 -34 93 -72 92 -153 -1 -137 -88 -221 -249 -240 l-55 -7 -22 49
c-19 42 -23 71 -26 195 -5 197 -8 193 114 187 73 -4 104 -11 146 -31z"/>
<path d="M17785 2251 l-40 -6 0 -960 c0 -755 3 -969 13 -1002 l13 -43 388 0
c302 0 391 3 399 13 7 8 13 133 18 330 l7 317 118 0 c137 0 312 21 419 50 327
91 500 316 500 652 0 128 -19 218 -64 311 -79 162 -207 265 -401 321 -67 19
-99 20 -700 22 -346 1 -648 -1 -670 -5z m981 -451 c27 -11 57 -28 68 -38 61
-55 75 -191 29 -283 -46 -90 -158 -149 -283 -149 -79 0 -90 21 -90 167 0 130
16 286 31 315 10 19 17 20 104 15 63 -4 109 -12 141 -27z"/>
</g>
</svg>
